<svg xmlns="http://www.w3.org/2000/svg" width="1085" height="1085" viewBox="0 0 35 35"><path d="M1 1h7v7h-7zM10 1h2v1h1v1h-1v1h-2v1h2v1h-1v1h-1v1h1v-1h1v2h-3v-6h1zM15 1h1v1h-1zM19 1h6v1h-1v1h-2v-1h-1v1h-2v1h1v2h1v-1h1v-1h1v1h1v1h-1v1h-1v1h1v1h-2v-2h-1v1h-1v-3h-1v-2h-1v-1h2zM27 1h7v7h-7zM2 2v5h5v-5zM25 2h1v3h-1zM28 2v5h5v-5zM3 3h3v3h-3zM13 3h1v1h-1zM15 3h2v2h1v1h-3v1h-1v-2h2v-1h-1zM29 3h3v3h-3zM12 4h1v1h-1zM24 6h2v3h-1v-2h-1zM13 7h1v1h1v-1h1v2h-1v2h1v1h-1v1h-1v-3h-1zM17 7h1v1h1v1h1v1h-1v1h-2v-1h1v-1h-1zM23 7h1v1h-1zM1 9h1v1h-1zM3 9h5v1h-3v1h-1v-1h-1zM27 9h5v1h-2v1h-1v-1h-2zM8 10h3v1h-3zM20 10h1v1h-1zM22 10h1v2h-1zM24 10h1v1h-1zM33 10h1v1h-1zM1 11h1v1h-1zM6 11h2v1h-1v1h2v1h2v1h1v1h-1v1h-2v-1h1v-1h-2v-1h-1v1h-2v1h-1v1h-1v-1h-1v-1h2v-1h1v-1h-1v1h-1v-2h3zM12 11h1v2h-4v-1h3zM19 11h1v1h-1zM26 11h1v2h-1v3h2v-1h2v1h-1v1h1v1h-2v1h-1v-2h-1v1h-1v-3h-1v-1h1v-2h1zM28 11h1v1h-1zM31 11h1v1h-1zM16 12h2v1h-1v2h1v-2h1v2h1v1h-1v1h1v1h3v-1h1v1h1v1h-6v-1h-1v-2h-1v1h-2v-1h-1v-2h1v1h1v-1h-1v-1h1zM20 12h2v1h1v-1h1v2h-1v3h-1v-1h-1v-1h-1zM29 12h2v1h-1v1h-1zM32 12h2v1h-1v1h-1v1h1v1h1v1h-2v-1h-1v-3h1zM1 13h1v1h-1zM27 14h1v1h-1zM33 14h1v1h-1zM7 15h1v1h-1zM13 16h1v2h-1zM30 16h1v1h-1zM2 17h1v1h-1zM5 17h3v1h-3zM31 17h1v2h-2v-1h1zM1 18h1v1h-1zM9 18h4v1h4v3h-3v4h-2v-1h1v-3h-2v-1h-2v1h-3v1h-3v-3h-1v-1h2v1h1v1h3v-1h-1v-1h2v1h1v-1h-1zM17 18h1v1h-1zM33 18h1v1h-1zM25 19h1v2h1v1h-1v1h-1v1h1v1h2v-1h1v1h3v2h1v3h1v1h-2v1h-1v1h-1v-2h1v-1h1v-1h-2v2h-1v1h-1v1h-1v1h-1v-1h-1v-1h2v-1h1v-1h-1v1h-2v1h-1v-2h1v-2h-1v-1h1v-2h-1v-1h-1v1h-1v-2h-2v1h-1v-1h-1v-2h1v-1h2v1h1v1h3zM28 19h1v2h2v1h1v1h1v1h1v3h-1v-2h-1v-1h-1v-1h-1v1h-1v-1h-2v-1h1zM32 19h1v1h-1zM1 20h1v1h-1zM12 20v1h3v-1zM23 20h1v1h-1zM33 20h1v2h-2v-1h1zM1 22h1v4h-1zM7 23h3v2h-1v-1h-2zM16 23h2v1h-1v1h-1zM5 24h2v1h1v1h-2v-1h-1zM3 25h1v1h-1zM10 25h1v1h-1zM15 25h1v2h-1zM18 25h1v1h-1zM23 25h1v2h-2v-1h1zM9 26h1v1h-1zM11 26h1v1h1v1h-1v1h1v1h1v-1h-1v-1h2v2h1v1h1v1h-2v-1h-2v2h1v1h-2v-1h-1v1h-2v-1h1v-1h1v-1h1v-1h-1v-1h-1v3h-1v-4h1v-1h1zM19 26h2v1h1v1h-1v1h-1v1h-1v2h-1v-3h1zM26 26v3h3v-3zM30 26v2h1v-2zM1 27h7v7h-7zM16 27h2v2h-1v-1h-1zM27 27h1v1h-1zM2 28v5h5v-5zM22 28h1v1h-1zM3 29h3v3h-3zM16 29h1v1h-1zM23 29h1v1h-1zM20 30h1v1h-1zM22 30h1v1h-1zM21 31h1v1h-1zM14 32h1v1h-1zM19 32h1v1h-1zM18 33h1v1h-1zM20 33h1v1h-1zM22 33h3v1h-3zM28 33h1v1h-1zM31 33h2v1h-2z"/></svg>